PathFileType	4	(X/Y/Z)	KinectSkeleton.trc																																																	
DataRate	CameraRate	NumFrames	NumMarkers	Units	OrigDataRate	OrigDataStartFrame	OrigNumFrames																																													
60	60	17	17	mm	60	186	300																																													
Frame#	Time	Neck			ShoulderMid			R.Shoulder			L.Shoulder			R.Elbow			L.Elbow			R.Wrist			L.Wrist			HipCenter			R.Hip			L.Hip			R.Knee			L.Knee			R.Ankle			L.Ankle			R.Foot			L.Foot		
		X1	Y1	Z1	X2	Y2	Z2	X3	Y3	Z3	X4	Y4	Z4	X5	Y5	Z5	X6	Y6	Z6	X7	Y7	Z7	X8	Y8	Z8	X9	Y9	Z9	X10	Y10	Z10	X11	Y11	Z11	X12	Y12	Z12	X13	Y13	Z13	X14	Y14	Z14	X15	Y15	Z15	X16	Y16	Z16	X17	Y17	Z17
																																																				
186	9.602	-1685.29	1534.843	741.213	-1685.29	1534.843	741.213	-1689.175	1526.886	916.721	-1695.775	1520.331	553.662	-1796.991	1373.826	1155.683	-1788.07	1445.885	280.342	-1650.83	1320.062	1355.355	-1681.784	1442.347	54.024	-1749.674	959.244	750.689	-1756.744	961.573	839.023	-1741.833	956.661	652.73	-1707.893	535.59	884.213	-1684.578	534.767	581.892	-1799.937	129.426	866.744	-1742.177	127.585	549.753	-1679.613	53.87	986.517	-1593.6	45.276	440.463
187	9.676	-1686.784	1535.072	740.628	-1686.784	1535.072	740.628	-1700.224	1528.795	915.618	-1691.514	1520.652	552.693	-1834.27	1385.09	1147.526	-1772.7	1446.074	275.477	-1714.518	1332.984	1364.869	-1674.876	1439.537	45.077	-1747.788	958.476	749.979	-1755.644	960.863	838.364	-1739.077	955.829	651.964	-1708.327	534.269	884.895	-1680.654	533.211	582.903	-1801.869	127.925	866.317	-1736.02	125.149	550.915	-1683.44	50.808	987.363	-1587.137	42.579	441.738
188	9.722	-1690.511	1537.383	735.61	-1690.511	1537.383	735.61	-1706.104	1530.564	910.575	-1687.55	1520.947	547.572	-1870.728	1383.61	1119.551	-1762.931	1443.806	269.478	-1779.58	1343.305	1352.655	-1678.854	1427.096	34.265	-1744.993	960.89	745.969	-1752.914	963.337	834.331	-1736.209	958.176	647.98	-1724.498	534.491	874.366	-1691.515	533.303	583.128	-1807.963	125.787	862.464	-1737.52	124.174	550.915	-1682.798	52.59	979.03	-1588.035	42.329	442.084
189	9.768	-1692.652	1538.66	731.303	-1692.652	1538.66	731.303	-1713.556	1533.07	905.636	-1688.924	1521.579	543.19	-1890.572	1392.856	1109.292	-1760.83	1441.653	264.784	-1835.638	1354.464	1353.935	-1680.007	1422.646	28.458	-1747.481	962.123	742.523	-1755.161	964.646	830.953	-1738.964	959.324	644.457	-1727.87	535.517	871.33	-1698.821	534.15	577.047	-1811.467	126.569	860.614	-1743.219	124.952	540.762	-1683.103	53.731	974.051	-1587.564	42.411	441.299
190	9.814	-1690.449	1539.417	728.357	-1690.449	1539.417	728.357	-1707.28	1530.997	902.958	-1693.211	1523.64	541.338	-1872.853	1380.871	1107.085	-1758.854	1443.331	262.965	-1846.08	1351.864	1356.469	-1678.431	1423.277	27.813	-1743.726	966.173	742.228	-1748.653	968.909	830.438	-1738.261	963.138	644.407	-1742.412	540.45	865.016	-1730.375	537.065	584.328	-1816.618	131.521	861.876	-1749.187	128.901	537.323	-1681.104	57.926	964.598	-1590.272	45.369	446.073
191	9.859	-1693.079	1540.535	727.211	-1693.079	1540.535	727.211	-1710.518	1532.895	901.929	-1695.343	1523.874	539.936	-1877.113	1385.351	1107.724	-1759.356	1440.492	261.648	-1854.513	1360.262	1358.297	-1675.994	1419.599	27.227	-1743.841	966.43	742.035	-1748.821	969.218	830.363	-1738.317	963.337	644.083	-1740.948	540.016	862.73	-1729.362	536.672	584.077	-1813.898	130.288	858.423	-1748.385	127.886	537.58	-1671.726	59.409	954.29	-1587.721	46.335	446.991
192	9.907	-1696.382	1540.64	724.738	-1696.382	1540.64	724.738	-1715.28	1532.103	899.324	-1697.43	1522.759	537.567	-1879.393	1377.705	1101.604	-1758.575	1432.301	261.172	-1845.397	1357.845	1351.099	-1650.578	1413.645	37.116	-1739.77	966.892	740.623	-1744.859	969.785	828.852	-1734.127	963.684	642.781	-1732.692	541.032	860.035	-1722.345	537.645	581.945	-1799.222	130.623	857.507	-1746.901	129.352	537.441	-1645.037	67.334	938.62	-1579.263	49.503	459.276
193	9.953	-1696.852	1542.013	722.335	-1696.852	1542.013	722.335	-1717.272	1532.766	896.965	-1698.855	1521.928	535.026	-1879.991	1373.173	1096.326	-1761.938	1420.888	262.757	-1823.919	1367.888	1342.554	-1640.192	1401.721	45.903	-1736.055	968.074	739.303	-1741.327	971.063	827.519	-1730.209	964.76	641.475	-1726.774	542.32	857.911	-1714.903	539.227	577.895	-1792.525	131.779	855.3	-1744.524	131.275	533.275	-1631.896	71.151	925.168	-1569.542	52.541	471.863
194	10	-1700.015	1544.971	719.089	-1700.015	1544.971	719.089	-1718.881	1534.966	894.779	-1703.641	1528.106	530.516	-1881.317	1371.741	1094.59	-1775.929	1403.397	268.305	-1759.784	1363.482	1317.835	-1601.17	1408.138	88.008	-1734.963	966.404	735.131	-1737.933	969.421	824.06	-1731.669	963.057	636.512	-1707.033	538.507	853.33	-1719.204	534.075	575.504	-1778.629	126.053	851.029	-1753.226	123.814	529.148	-1603.845	73.284	889.72	-1561.847	57.56	517.653
195	10.047	-1700.598	1545.258	718.447	-1700.598	1545.258	718.447	-1717.184	1535.057	894.662	-1704.003	1528.139	529.497	-1867.757	1366.463	1099.951	-1769.047	1397.164	267.916	-1734.927	1364.049	1317.269	-1581.919	1407.996	100.193	-1734.639	965.758	734.161	-1737.535	968.729	823.232	-1731.429	962.464	635.385	-1704.416	537.149	850.076	-1718.315	532.794	574.595	-1772.026	123.371	847.242	-1750.993	121.808	527.978	-1595.478	71.127	879.491	-1557.217	60.78	526.855
196	10.092	-1700.432	1544.342	717.521	-1700.432	1544.342	717.521	-1715.032	1533.771	893.729	-1704.239	1526.947	528.872	-1856.477	1360.407	1100.753	-1770.116	1394.081	269.047	-1714.427	1360.317	1311.649	-1581.64	1403.469	103.405	-1734.532	965.841	733.346	-1737.367	968.822	822.266	-1731.389	962.536	634.738	-1704.304	537.843	846.742	-1718.948	533.564	574.185	-1772.424	124.889	842.343	-1753.899	123.406	528.238	-1595.84	72.27	871.815	-1561.5	59.251	527.734
197	10.139	-1698.238	1539.196	708.053	-1698.238	1539.196	708.053	-1705.889	1531.332	884.284	-1701.552	1524.003	519.743	-1828.95	1346.663	1093.23	-1772.626	1382.086	266.179	-1635.517	1338.755	1258.049	-1560.802	1379.939	131.403	-1736.026	960.276	723.742	-1738.45	963.096	812.671	-1733.338	957.149	625.123	-1707.786	532.167	840.296	-1719.101	527.137	573.218	-1774.572	119.018	843.235	-1756.826	116.47	534.98	-1597.929	61.416	860.347	-1561.46	63.323	546.549
198	10.185	-1697.327	1536.174	705.5	-1697.327	1536.174	705.5	-1704.946	1530.858	880.202	-1699.953	1521.947	518.295	-1817.398	1349.258	1095.375	-1752.349	1380.731	261.674	-1605.597	1320.638	1230.586	-1546.243	1343.127	125.739	-1728.917	959.203	717.646	-1733.797	961.308	806.022	-1723.504	956.87	619.641	-1688.208	535.162	847.791	-1698.855	529.794	566.529	-1789.194	131.422	858.035	-1794.314	130.41	533.359	-1621.72	53.467	875.956	-1607.895	58.898	562.098
199	10.234	-1693.917	1539.984	700.699	-1693.917	1539.984	700.699	-1701.811	1535.044	877.226	-1701.507	1522.442	511.858	-1808.67	1351.422	1097.133	-1730.11	1372.719	253.362	-1583.184	1312.313	1209.742	-1508.145	1340.361	138.808	-1735.193	958.647	715.462	-1737.064	960.683	804.709	-1733.118	956.389	616.492	-1692.875	529.643	833.779	-1731.708	524.354	568.08	-1771.154	117.171	837.234	-1788.455	114.108	534.905	-1592.998	63.246	856.913	-1595.839	50.713	551.274
200	10.277	-1692.413	1537.133	693.356	-1692.413	1537.133	693.356	-1694.772	1533.041	870.468	-1705.608	1519.194	505.246	-1775.308	1343.748	1096.848	-1699.727	1375.873	241.527	-1536.154	1295.372	1171.474	-1462.997	1354.485	157.935	-1729.062	955.283	711.471	-1725.301	956.861	800.701	-1733.234	953.534	612.518	-1706.368	523.667	827.538	-1743.351	521.447	564.13	-1777.784	110.026	841.943	-1787.6	109.904	526.352	-1597.991	59.929	856.969	-1593.698	51.731	547.256
201	10.326	-1687.501	1536.994	690.338	-1687.501	1536.994	690.338	-1691.851	1529.949	867.859	-1705.597	1517.305	501.974	-1780.949	1347.12	1096.497	-1672.949	1383.573	235.058	-1543.708	1284.324	1166.705	-1438.966	1381.308	141.339	-1728.75	955.245	708.629	-1723.519	957.086	797.815	-1734.552	953.203	609.725	-1695.571	524.338	826.68	-1723.927	520.904	561.802	-1773.662	111.683	839.487	-1789.655	111.246	534.423	-1593.929	61.455	855.677	-1595.068	51.809	541.833
202	10.369	-1677.447	1536.83	686.334	-1677.447	1536.83	686.334	-1682.38	1529.845	864.017	-1693.007	1515.803	497.427	-1774.364	1350.528	1094.679	-1687.634	1363.433	238.345	-1544.515	1278.325	1179.753	-1462.429	1333.055	128.713	-1716.263	954.155	705.373	-1713.077	956.402	794.733	-1719.795	951.664	606.277	-1684.796	523.541	827.616	-1666.283	522.391	556.088	-1775.448	113.016	839.386	-1746.174	114.132	543.252	-1596.432	60.351	857.715	-1554.625	45.65	530.97
